<svg xmlns="http://www.w3.org/2000/svg" viewBox="0 0 133.03 135.21"><defs><style>.cls-1,.cls-2{fill:none;stroke-miterlimit:10;stroke-width:7px;}.cls-1{stroke:#72ae74;}.cls-2{stroke:#0c8040;}</style></defs><g id="Layer_2" data-name="Layer 2"><g id="Layer_1-2" data-name="Layer 1"><path class="cls-1" d="M119.05,57H77V14.16A10.57,10.57,0,0,0,66.51,3.5h0A10.57,10.57,0,0,0,56,14.16V57H14a10.66,10.66,0,0,0,0,21.32H56v42.78a10.57,10.57,0,0,0,10.47,10.66h0A10.57,10.57,0,0,0,77,121.05V78.27h42.06a10.66,10.66,0,0,0,0-21.32Z"/><path class="cls-2" d="M115.69,58.07H74.85V15.92A10.34,10.34,0,0,0,64.68,5.42h0a10.34,10.34,0,0,0-10.17,10.5V58.07H13.67a10.51,10.51,0,0,0,0,21H54.51v42.14a10.34,10.34,0,0,0,10.17,10.5h0a10.34,10.34,0,0,0,10.17-10.5V79.07h40.84a10.51,10.51,0,0,0,0-21Z"/></g></g></svg>