<svg xmlns="http://www.w3.org/2000/svg" viewBox="0 0 95.86 121.15"><defs><style>.cls-1,.cls-2{fill:none;stroke-miterlimit:10;stroke-width:6px;}.cls-1{stroke:#72ae74;}.cls-2{stroke:#0c8040;}</style></defs><g id="Layer_2" data-name="Layer 2"><g id="Layer_1-2" data-name="Layer 1"><path class="cls-1" d="M6.2,56a82.69,82.69,0,0,0,4.45,15.49A86.31,86.31,0,0,0,37.88,107.3V3H19.79"/><path class="cls-2" d="M3,58.19A81.94,81.94,0,0,0,7.4,73.68a86.22,86.22,0,0,0,27.23,35.79V5.18H16.54"/><path class="cls-1" d="M92.9,62.55a81.86,81.86,0,0,0-4.44-15.49A86.39,86.39,0,0,0,61.23,11.27V115.56H79.31"/><path class="cls-2" d="M90.08,65.14a82.69,82.69,0,0,0-4.45-15.49A86.39,86.39,0,0,0,58.4,13.86V118.15H76.48"/></g></g></svg>