<svg xmlns="http://www.w3.org/2000/svg" viewBox="0 0 103.72 104.9"><defs><style>.cls-1,.cls-2{fill:none;stroke-miterlimit:10;stroke-width:7px;}.cls-1{stroke:#72ae74;}.cls-2{stroke:#0c8040;}</style></defs><g id="Layer_2" data-name="Layer 2"><g id="Layer_1-2" data-name="Layer 1"><path class="cls-1" d="M81.47,7.18,51.73,36.92,21.48,6.66A10.58,10.58,0,0,0,6.53,6.53h0a10.58,10.58,0,0,0,.13,15L36.92,51.73,7.18,81.47A10.66,10.66,0,0,0,22.25,96.55L52,66.81,82.25,97.06a10.56,10.56,0,0,0,14.94.13h0a10.56,10.56,0,0,0-.13-14.94L66.81,52,96.55,22.25A10.66,10.66,0,0,0,81.47,7.18Z"/><path class="cls-2" d="M79.89,10.34,51,39.22,21.21,9.42A10.33,10.33,0,0,0,6.6,9.18h0A10.32,10.32,0,0,0,6.83,23.8l29.8,29.81L7.75,82.48A10.35,10.35,0,0,0,8,97.1a10.35,10.35,0,0,0,14.62.23L51.48,68.45l29.8,29.81a10.35,10.35,0,0,0,14.62.23h0a10.35,10.35,0,0,0-.23-14.62L65.86,54.07,94.74,25.19a10.35,10.35,0,0,0-.23-14.62A10.35,10.35,0,0,0,79.89,10.34Z"/></g></g></svg>