<svg xmlns="http://www.w3.org/2000/svg" viewBox="0 0 167.54 139.92"><defs><style>.cls-1,.cls-2,.cls-3,.cls-4{fill:none;stroke-miterlimit:10;}.cls-1,.cls-3{stroke:#72ae74;}.cls-1,.cls-2{stroke-width:7px;}.cls-2,.cls-4{stroke:#0c8040;}.cls-3,.cls-4{stroke-width:3px;}</style></defs><g id="Layer_2" data-name="Layer 2"><g id="Layer_1-2" data-name="Layer 1"><path class="cls-1" d="M111.18,55.2H99.43c-5.12,0-7.69-6.38-4.07-10.11l8.72-9a10.37,10.37,0,0,0,.49-14,9.39,9.39,0,0,0-13.77-.22l-8.31,8.56a5.73,5.73,0,0,1-9.81-4.19V16c0-5.41-4.05-10.13-9.3-10.29a9.72,9.72,0,0,0-9.88,9.87v9.67a5.73,5.73,0,0,1-9.82,4.19l-7.33-7.55a9.39,9.39,0,0,0-13.56,0h0c-4.49,4.35-3.1,10,.44,13.62l8.56,9.62c3.62,3.73,1.06,10.11-4.07,10.11H15A9.75,9.75,0,0,0,5.4,65.08h0A9.74,9.74,0,0,0,15,75H25.36c5.12,0,7.69,6.38,4.07,10.11l-6.36,6.55a10.38,10.38,0,0,0-.49,14,9.4,9.4,0,0,0,13.77.21l7.33-7.55a5.73,5.73,0,0,1,9.82,4.19v11.69c0,5.41,4,10.13,9.29,10.29a9.73,9.73,0,0,0,9.89-9.88V101.51a5.73,5.73,0,0,1,9.81-4.19l8.31,8.56a9.39,9.39,0,0,0,13.56,0h0c4.8-3.76,3.34-10.53-.2-14.18l-6.43-6.63C94.11,81.34,96.67,75,101.79,75h9.39a9.73,9.73,0,0,0,9.59-9.88h0A9.74,9.74,0,0,0,111.18,55.2Z"/><path class="cls-2" d="M109.28,53H97.53c-5.13,0-7.69-6.38-4.07-10.11l8.72-9a10.38,10.38,0,0,0,.49-14.05,9.4,9.4,0,0,0-13.77-.21l-8.31,8.56a5.73,5.73,0,0,1-9.81-4.19V13.79c0-5.41-4-10.12-9.3-10.29a9.74,9.74,0,0,0-9.89,9.88v9.67a5.73,5.73,0,0,1-9.81,4.19l-7.33-7.55a9.4,9.4,0,0,0-13.57,0h0c-4.48,4.35-3.09,10,.45,13.62l8.56,9.62C33.51,46.66,30.94,53,25.82,53H13.09A9.73,9.73,0,0,0,3.5,62.92h0a9.73,9.73,0,0,0,9.59,9.88H23.46c5.12,0,7.68,6.38,4.06,10.11l-6.35,6.55a10.37,10.37,0,0,0-.49,14,9.39,9.39,0,0,0,13.77.22l7.33-7.55a5.73,5.73,0,0,1,9.81,4.19v11.69c0,5.41,4,10.13,9.3,10.29a9.73,9.73,0,0,0,9.89-9.88V99.35a5.73,5.73,0,0,1,9.81-4.19l8.31,8.56a9.39,9.39,0,0,0,13.56,0h0c4.8-3.76,3.34-10.53-.2-14.18l-6.44-6.63c-3.62-3.73-1-10.11,4.07-10.11h9.39a9.74,9.74,0,0,0,9.59-9.88h0A9.74,9.74,0,0,0,109.28,53Z"/><path class="cls-3" d="M162.37,111.88h-4.49a2.28,2.28,0,0,1-1.55-3.87l3.33-3.44a4,4,0,0,0,.19-5.37,3.59,3.59,0,0,0-5.26-.09l-3.17,3.28a2.19,2.19,0,0,1-3.75-1.6V96.86a3.84,3.84,0,0,0-3.55-3.94,3.71,3.71,0,0,0-3.78,3.78v3.7a2.18,2.18,0,0,1-3.74,1.6l-2.8-2.89a3.59,3.59,0,0,0-5.18,0h0c-1.72,1.67-1.19,3.82.17,5.22l3.26,3.68a2.27,2.27,0,0,1-1.55,3.87h-4.86a3.73,3.73,0,0,0-3.66,3.79h0a3.72,3.72,0,0,0,3.66,3.78h4a2.28,2.28,0,0,1,1.55,3.87l-2.42,2.51a4,4,0,0,0-.19,5.38,3.59,3.59,0,0,0,5.26.08l2.8-2.89a2.18,2.18,0,0,1,3.74,1.6v4.48a3.84,3.84,0,0,0,3.55,3.94,3.73,3.73,0,0,0,3.78-3.78v-5a2.19,2.19,0,0,1,3.75-1.61l3.17,3.28a3.58,3.58,0,0,0,5.18,0h0c1.83-1.44,1.27-4-.08-5.43l-2.46-2.54a2.28,2.28,0,0,1,1.56-3.87h3.58a3.72,3.72,0,0,0,3.67-3.78h0A3.73,3.73,0,0,0,162.37,111.88Z"/><path class="cls-4" d="M159.35,111.06h-4.49a2.27,2.27,0,0,1-1.55-3.87l3.33-3.44a4,4,0,0,0,.18-5.38,3.59,3.59,0,0,0-5.26-.09l-3.17,3.28a2.19,2.19,0,0,1-3.75-1.6V96a3.83,3.83,0,0,0-3.55-3.94,3.71,3.71,0,0,0-3.77,3.78v3.7a2.19,2.19,0,0,1-3.75,1.61l-2.8-2.9a3.59,3.59,0,0,0-5.18,0h0c-1.71,1.67-1.18,3.82.17,5.22l3.27,3.69a2.28,2.28,0,0,1-1.55,3.87h-4.87a3.72,3.72,0,0,0-3.66,3.78h0a3.72,3.72,0,0,0,3.66,3.78h4a2.28,2.28,0,0,1,1.56,3.87L125.7,125a4,4,0,0,0-.19,5.38,3.58,3.58,0,0,0,5.26.08l2.8-2.89a2.19,2.19,0,0,1,3.75,1.6v4.48a3.83,3.83,0,0,0,3.55,3.94,3.72,3.72,0,0,0,3.77-3.78v-5a2.19,2.19,0,0,1,3.75-1.61l3.17,3.28a3.58,3.58,0,0,0,5.18,0h0c1.84-1.44,1.28-4-.07-5.43l-2.46-2.54a2.28,2.28,0,0,1,1.55-3.87h3.59a3.72,3.72,0,0,0,3.66-3.78h0A3.72,3.72,0,0,0,159.35,111.06Z"/></g></g></svg>