<svg xmlns="http://www.w3.org/2000/svg" viewBox="0 0 147.13 149.1"><defs><style>.cls-1,.cls-2{fill:none;stroke-miterlimit:10;stroke-width:7px;}.cls-1{stroke:#72ae74;}.cls-2{stroke:#0c8040;}</style></defs><g id="Layer_2" data-name="Layer 2"><g id="Layer_1-2" data-name="Layer 1"><ellipse class="cls-1" cx="23.11" cy="22.73" rx="19.22" ry="19.23"/><ellipse class="cls-2" cx="21.73" cy="22.73" rx="17.84" ry="18.68"/><ellipse class="cls-1" cx="124.41" cy="22.73" rx="19.22" ry="19.23"/><ellipse class="cls-2" cx="123.04" cy="22.73" rx="17.84" ry="18.68"/><ellipse class="cls-1" cx="74.16" cy="22.73" rx="19.22" ry="19.23"/><ellipse class="cls-2" cx="72.78" cy="22.73" rx="17.84" ry="18.68"/><ellipse class="cls-1" cx="24.1" cy="74.55" rx="19.22" ry="19.23"/><ellipse class="cls-2" cx="22.72" cy="74.55" rx="17.84" ry="18.68"/><ellipse class="cls-1" cx="124.21" cy="74.55" rx="19.22" ry="19.23"/><ellipse class="cls-2" cx="122.84" cy="74.55" rx="17.84" ry="18.68"/><ellipse class="cls-1" cx="73.96" cy="74.55" rx="19.22" ry="19.23"/><ellipse class="cls-2" cx="72.58" cy="74.55" rx="17.84" ry="18.68"/><ellipse class="cls-1" cx="22.72" cy="126.37" rx="19.22" ry="19.23"/><ellipse class="cls-2" cx="21.34" cy="126.37" rx="17.84" ry="18.68"/><ellipse class="cls-1" cx="122.84" cy="126.37" rx="19.22" ry="19.23"/><ellipse class="cls-2" cx="121.46" cy="126.37" rx="17.84" ry="18.68"/><ellipse class="cls-1" cx="72.58" cy="126.37" rx="19.22" ry="19.23"/><ellipse class="cls-2" cx="71.21" cy="126.37" rx="17.84" ry="18.68"/></g></g></svg>