<svg xmlns="http://www.w3.org/2000/svg" viewBox="0 0 253.51 224.33"><defs><style>.cls-1,.cls-2,.cls-3,.cls-4{fill:none;stroke-miterlimit:10;}.cls-1,.cls-2{stroke:#72ae74;}.cls-1,.cls-4{stroke-width:14px;}.cls-2,.cls-3{stroke-width:8px;}.cls-3,.cls-4{stroke:#0c8040;}</style></defs><g id="Layer_2" data-name="Layer 2"><g id="Layer_1-2" data-name="Layer 1"><path class="cls-1" d="M52,7C75.62,7,94.76,27.88,94.76,53.65S71.47,85.31,52,100.29c-8.49,6.53-14.46,15.49-14.73,25.21-.88,32.91-.09,68.48-5.34,81.15-3,7.16-12.55,7.34-17-.37"/><path class="cls-2" d="M107.47,93.63s43.41,57.1,43.41,81.85-19.43,44.8-43.41,44.8-43.4-20.06-43.4-44.8S107.47,93.63,107.47,93.63Z"/><path class="cls-3" d="M107.47,100.21s41.18,54.16,41.18,77.62-18.44,42.5-41.18,42.5-41.17-19-41.17-42.5S107.47,100.21,107.47,100.21Z"/><path class="cls-2" d="M206.1,93.61s43.41,57.1,43.41,81.84-19.44,44.8-43.41,44.8-43.41-20.05-43.41-44.8S206.1,93.61,206.1,93.61Z"/><path class="cls-3" d="M206.1,100.18s41.17,54.16,41.17,77.63S228.84,220.3,206.1,220.3s-41.17-19-41.17-42.49S206.1,100.18,206.1,100.18Z"/><path class="cls-4" d="M90.55,53.65c0,25.76-22.75,31.66-41.76,46.64-8.29,6.53-14.12,15.49-14.37,25.21-.87,32.91-.09,68.48-5.23,81.15-2.9,7.16-12.25,7.34-16.57-.37C6.23,194.88,7,62.58,7,53.65,7,27.88,25.73,7,48.79,7S90.55,27.88,90.55,53.65Z"/></g></g></svg>