<svg xmlns="http://www.w3.org/2000/svg" viewBox="0 0 108.27 116.41"><defs><style>.cls-1,.cls-2{fill:none;stroke-miterlimit:10;stroke-width:7px;}.cls-1{stroke:#72ae74;}.cls-2{stroke:#0c8040;}</style></defs><g id="Layer_2" data-name="Layer 2"><g id="Layer_1-2" data-name="Layer 1"><path class="cls-1" d="M104.77,44.09c0,21.37-16.51,38.7-36.86,38.7A35.62,35.62,0,0,1,46,75.22c-.66-.52-33.09,43.85-40.28,37C-2.56,104.27,42.91,72.55,42.36,72a39.55,39.55,0,0,1-11.31-27.9c0-21.36,16.5-38.69,36.86-38.69S104.77,22.73,104.77,44.09Z"/><path class="cls-2" d="M101.24,42.19c0,21.37-16.12,38.69-36,38.69a34.19,34.19,0,0,1-21.39-7.57c-.65-.51-32.33,43.85-39.36,37-8.09-7.92,36.34-39.64,35.8-40.2A40,40,0,0,1,29.22,42.19c0-21.37,16.12-38.69,36-38.69S101.24,20.82,101.24,42.19Z"/></g></g></svg>