<svg xmlns="http://www.w3.org/2000/svg" viewBox="0 0 137.99 177.87"><defs><style>.cls-1,.cls-2,.cls-3{fill:none;stroke-miterlimit:10;}.cls-1,.cls-2{stroke:#72ae74;}.cls-1{stroke-width:8px;}.cls-2,.cls-3{stroke-width:7px;}.cls-3{stroke:#0c8040;}</style></defs><g id="Layer_2" data-name="Layer 2"><g id="Layer_1-2" data-name="Layer 1"><path class="cls-1" d="M45.94,28.81C12.29,42.46-3.56,80,10.53,112.56a64.88,64.88,0,0,0,35.88,34.5l-9.13,20.55,41.41-16.8L60.56,115.1,49.82,138.81"/><path class="cls-2" d="M91.24,147.24c30-12.72,46-45.6,36.94-76.13a64.45,64.45,0,0,0-35.25-40.3l10.25-20L60.9,25.39,77,62l12-23.12"/><path class="cls-3" d="M44.05,32.57C10.41,46.22-5.45,83.71,8.64,116.32a64.91,64.91,0,0,0,35.88,34.5l-9.13,20.55L76.8,154.56,58.68,118.85,47.94,142.57"/><path class="cls-3" d="M95,142.63c30-12.72,46-45.6,37-76.13A64.48,64.48,0,0,0,96.72,26.2L107,6.15,64.69,20.79,80.82,57.38l12-23.12"/></g></g></svg>